# xmcd
#
# Track frame offsets:
#	150
#	20414
#	51283
#	70647
#	84142
#	102982
#	109904
#	132629
#	145751
#	164320
#	181145
#	212357
#	218839
#
# Disc length: 3083 seconds
#
# Revision: 1
# Processed by: cddbd v1.5.2PL0 Copyright (c) Steve Scherf et al.
# Submitted via: audiograbber 1.83.01
#
DISCID=af0c090d
DTITLE=Kelly Bell Band - reincarnated
DYEAR=2007
DGENRE=Blues
TTITLE0=Reincarnated
TTITLE1=No Different
TTITLE2=Can't Take That Back
TTITLE3=Love in Vain
TTITLE4=More Than a Moment
TTITLE5=I Still Wish...
TTITLE6=Slander (Come Here Baby)
TTITLE7=SpongeBob Squarepants
TTITLE8=Bakerman
TTITLE9=Hush
TTITLE10=Porn Star
TTITLE11=Brown Frame
TTITLE12=No Different (inside Kelly)
EXTD=
EXTT0=
EXTT1=
EXTT2=
EXTT3=
EXTT4=
EXTT5=
EXTT6=
EXTT7=Phat Blues version featurnig Axiom
EXTT8=
EXTT9=
EXTT10=featuring Landis Expandis
EXTT11=
EXTT12=
PLAYORDER=
